<svg width="136" height="136" viewBox="0 0 136 136" fill="none" xmlns="http://www.w3.org/2000/svg">
<g filter="url(#filter0_d_1_2)">
<g clip-path="url(#clip0_1_2)">
<rect x="4" width="128" height="128" rx="22" fill="#F2B80E"/>
<path d="M45.696 84.612C45.0347 84.612 44.4767 84.4673 44.022 84.178L38.256 80.272C35.0733 82.3387 31.7253 83.372 28.212 83.372C24.864 83.372 21.826 82.4833 19.098 80.706C16.4113 78.9287 14.3033 76.552 12.774 73.576C11.2447 70.6 10.48 67.3553 10.48 63.842C10.48 59.7913 11.41 56.03 13.27 52.558C15.1713 49.0447 17.6927 46.2547 20.834 44.188C23.9753 42.1213 27.344 41.088 30.94 41.088C34.288 41.088 37.3053 41.9767 39.992 43.754C42.72 45.5313 44.8487 47.9287 46.378 50.946C47.9073 53.922 48.672 57.1667 48.672 60.68C48.672 63.6973 48.176 66.5287 47.184 69.174C46.2333 71.778 44.828 74.1133 42.968 76.18L47.432 79.032C48.3 79.5693 48.734 80.4373 48.734 81.636C48.734 82.5453 48.424 83.2687 47.804 83.806C47.184 84.3433 46.4813 84.612 45.696 84.612ZM28.212 77.358C29.6173 77.358 31.0227 77.0893 32.428 76.552L29.948 74.878C29.4107 74.506 29.0387 74.134 28.832 73.762C28.6667 73.3487 28.584 72.8733 28.584 72.336C28.584 71.468 28.8733 70.7447 29.452 70.166C30.072 69.5873 30.7747 69.298 31.56 69.298C32.304 69.298 32.9653 69.5047 33.544 69.918L37.76 72.708C39.124 71.1373 40.2193 69.3187 41.046 67.252C41.8727 65.1853 42.286 63.0567 42.286 60.866C42.286 58.51 41.7693 56.278 40.736 54.17C39.7027 52.062 38.2767 50.3673 36.458 49.086C34.6807 47.7633 32.6967 47.102 30.506 47.102C28.15 47.102 25.918 47.846 23.81 49.334C21.702 50.822 20.0073 52.8267 18.726 55.348C17.486 57.8693 16.866 60.618 16.866 63.594C16.866 66.1153 17.3413 68.43 18.292 70.538C19.284 72.646 20.648 74.32 22.384 75.56C24.12 76.7587 26.0627 77.358 28.212 77.358ZM63.9434 83.558C61.7114 83.558 59.934 83.0827 58.6114 82.132C57.2887 81.14 56.2967 79.3627 55.6354 76.8C54.974 74.2373 54.6434 70.5587 54.6434 65.764C54.6434 64.152 54.7054 62.3747 54.8294 60.432C54.9534 58.4893 55.1187 56.8567 55.3254 55.534C55.4907 54.5007 55.8007 53.7153 56.2554 53.178C56.71 52.6407 57.3714 52.372 58.2394 52.372C59.066 52.372 59.7687 52.62 60.3474 53.116C60.926 53.612 61.2154 54.3353 61.2154 55.286L61.0914 57.022C60.678 60.5353 60.4714 63.904 60.4714 67.128C60.4714 71.344 60.8227 74.2167 61.5254 75.746C62.2694 77.234 63.282 77.978 64.5634 77.978C66.0514 77.978 67.5807 77.5853 69.1514 76.8C70.722 75.9733 71.838 75.188 72.4994 74.444C72.7474 74.196 72.8714 73.6793 72.8714 72.894L72.9954 55.224C72.9954 54.3973 73.2847 53.7153 73.8634 53.178C74.4834 52.6407 75.1654 52.372 75.9094 52.372C76.6947 52.372 77.3767 52.6407 77.9554 53.178C78.5754 53.7153 78.8854 54.3973 78.8854 55.224V80.396C78.8854 81.1813 78.5754 81.884 77.9554 82.504C77.3767 83.0827 76.6947 83.372 75.9094 83.372C75.0827 83.372 74.3387 83.124 73.6774 82.628C73.0574 82.0907 72.7474 81.4293 72.7474 80.644V79.962C71.1767 81.078 69.7094 81.9667 68.3454 82.628C67.0227 83.248 65.5554 83.558 63.9434 83.558ZM90.8872 49.83C90.1019 49.83 89.3992 49.52 88.7792 48.9C88.2006 48.28 87.9319 47.5773 87.9732 46.792L88.0352 44.498C88.0766 43.7127 88.3866 43.0307 88.9652 42.452C89.5439 41.8733 90.2259 41.584 91.0112 41.584C91.7966 41.584 92.4786 41.894 93.0572 42.514C93.6772 43.134 93.9666 43.816 93.9252 44.56L93.8632 46.916C93.8219 47.7427 93.5119 48.4453 92.9332 49.024C92.3959 49.5613 91.7139 49.83 90.8872 49.83ZM90.5772 83.372C89.7506 83.372 89.0272 83.0827 88.4072 82.504C87.8286 81.884 87.5392 81.1607 87.5392 80.334L87.8492 55.658C87.8492 54.8313 88.1386 54.1287 88.7172 53.55C89.3372 52.93 90.0606 52.62 90.8872 52.62C91.7552 52.62 92.4786 52.93 93.0572 53.55C93.6359 54.1287 93.9252 54.8313 93.9252 55.658L93.6152 80.334C93.6152 81.1607 93.3052 81.884 92.6852 82.504C92.1066 83.0827 91.4039 83.372 90.5772 83.372ZM101.685 83C100.735 83 99.9907 82.7107 99.4534 82.132C98.9574 81.5533 98.7094 80.8507 98.7094 80.024C98.7094 79.3213 98.9161 78.722 99.3294 78.226L115.077 58.696H102.119C101.293 58.696 100.59 58.4067 100.011 57.828C99.4327 57.2493 99.1434 56.5467 99.1434 55.72C99.1434 54.8933 99.4327 54.1907 100.011 53.612C100.59 52.992 101.293 52.682 102.119 52.682H120.967C121.877 52.682 122.6 52.992 123.137 53.612C123.675 54.1907 123.943 54.8933 123.943 55.72C123.943 56.3813 123.737 56.9807 123.323 57.518L107.575 77.048H121.401C122.228 77.048 122.931 77.3373 123.509 77.916C124.088 78.4947 124.377 79.1973 124.377 80.024C124.377 80.8093 124.067 81.512 123.447 82.132C122.869 82.7107 122.187 83 121.401 83H101.685Z" fill="white"/>
</g>
<rect x="6" y="2" width="124" height="124" rx="20" stroke="white" stroke-width="4"/>
</g>
<defs>
<filter id="filter0_d_1_2" x="0" y="0" width="136" height="136" filterUnits="userSpaceOnUse" color-interpolation-filters="sRGB">
<feFlood flood-opacity="0" result="BackgroundImageFix"/>
<feColorMatrix in="SourceAlpha" type="matrix" values="0 0 0 0 0 0 0 0 0 0 0 0 0 0 0 0 0 0 127 0" result="hardAlpha"/>
<feOffset dy="4"/>
<feGaussianBlur stdDeviation="2"/>
<feComposite in2="hardAlpha" operator="out"/>
<feColorMatrix type="matrix" values="0 0 0 0 0 0 0 0 0 0 0 0 0 0 0 0 0 0 0.25 0"/>
<feBlend mode="normal" in2="BackgroundImageFix" result="effect1_dropShadow_1_2"/>
<feBlend mode="normal" in="SourceGraphic" in2="effect1_dropShadow_1_2" result="shape"/>
</filter>
<clipPath id="clip0_1_2">
<rect x="4" width="128" height="128" rx="22" fill="white"/>
</clipPath>
</defs>
</svg>
